<svg width="29" height="28" viewBox="0 0 29 28" fill="none" xmlns="http://www.w3.org/2000/svg">
<path d="M28.4458 22.2645L25.3417 20.1949L22.5822 18.3557C22.0497 18.0013 21.334 18.1175 20.9409 18.6221L19.2334 20.8172C18.8666 21.2935 18.2068 21.4304 17.6808 21.1392C16.5222 20.4947 15.1521 19.8879 12.1292 16.8611C9.10618 13.8342 8.49549 12.468 7.85101 11.3094C7.5598 10.7834 7.69668 10.1236 8.173 9.75691L10.3681 8.04942C10.8727 7.65633 10.9889 6.94064 10.6346 6.40805L8.85177 3.73358L6.72571 0.544464C6.36385 0.00164174 5.63947 -0.161325 5.08002 0.174179L2.62808 1.64515C1.96544 2.03556 1.47834 2.66599 1.26769 3.40574C0.597173 5.8504 0.461987 11.2432 9.1047 19.886C17.7474 28.5287 23.1398 28.393 25.5844 27.7225C26.3242 27.5119 26.9546 27.0248 27.345 26.3621L28.816 23.9102C29.1515 23.3507 28.9886 22.6264 28.4458 22.2645Z" fill="#55A630"/>
<path d="M16.9197 4.34538C21.4501 4.35041 25.1215 8.02176 25.1265 12.5522C25.1265 12.8188 25.3427 13.035 25.6093 13.035C25.8759 13.035 26.0921 12.8188 26.0921 12.5522C26.0865 7.48878 21.9832 3.38546 16.9198 3.37988C16.6532 3.37988 16.437 3.59601 16.437 3.86266C16.437 4.1292 16.6531 4.34538 16.9197 4.34538Z" fill="#55A630"/>
<path d="M16.921 7.24094C19.8524 7.24439 22.2278 9.61988 22.2313 12.5512C22.2313 12.8178 22.4474 13.034 22.714 13.034C22.9806 13.034 23.1968 12.8179 23.1968 12.5512C23.1928 9.08684 20.3854 6.27938 16.921 6.27539C16.6544 6.27539 16.4382 6.49151 16.4382 6.75817C16.4382 7.02482 16.6544 7.24094 16.921 7.24094Z" fill="#55A630"/>
<path d="M16.9197 10.1383C18.2522 10.1399 19.3319 11.2197 19.3335 12.5521C19.3335 12.8187 19.5496 13.0349 19.8163 13.0349C20.0829 13.0349 20.2991 12.8188 20.2991 12.5521C20.2969 10.6867 18.7852 9.17498 16.9198 9.17285C16.6532 9.17285 16.437 9.38897 16.437 9.65563C16.437 9.92223 16.6531 10.1383 16.9197 10.1383Z" fill="#55A630"/>
</svg>
